<svg width="107" height="83" viewBox="0 0 107 83" fill="none" xmlns="http://www.w3.org/2000/svg">
<path d="M37.9645 4.94975C39.9171 2.99713 43.0829 2.99713 45.0355 4.94975L78.0502 37.9645C80.0029 39.9171 80.0029 43.0829 78.0503 45.0355L45.0355 78.0502C43.0829 80.0029 39.9171 80.0029 37.9645 78.0503L4.94975 45.0355C2.99713 43.0829 2.99713 39.9171 4.94975 37.9645L37.9645 4.94975Z" stroke="#00FFF0" stroke-width="2"/>
<path d="M23.056 40.736C23.056 38.5173 23.536 36.544 24.496 34.816C25.456 33.0667 26.7893 31.712 28.496 30.752C30.224 29.7707 32.176 29.28 34.352 29.28C37.0187 29.28 39.3013 29.984 41.2 31.392C43.0987 32.8 44.368 34.72 45.008 37.152H38.992C38.544 36.2133 37.904 35.4987 37.072 35.008C36.2613 34.5173 35.3333 34.272 34.288 34.272C32.6027 34.272 31.2373 34.8587 30.192 36.032C29.1467 37.2053 28.624 38.7733 28.624 40.736C28.624 42.6987 29.1467 44.2667 30.192 45.44C31.2373 46.6133 32.6027 47.2 34.288 47.2C35.3333 47.2 36.2613 46.9547 37.072 46.464C37.904 45.9733 38.544 45.2587 38.992 44.32H45.008C44.368 46.752 43.0987 48.672 41.2 50.08C39.3013 51.4667 37.0187 52.16 34.352 52.16C32.176 52.16 30.224 51.68 28.496 50.72C26.7893 49.7387 25.456 48.384 24.496 46.656C23.536 44.928 23.056 42.9547 23.056 40.736ZM55.111 47.776H62.279V52H49.639V29.536H55.111V47.776ZM71.641 33.92V38.464H78.969V42.688H71.641V47.616H79.929V52H66.169V29.536H79.929V33.92H71.641ZM98.7455 48.032H90.3615L89.0175 52H83.2895L91.4175 29.536H97.7535L105.882 52H100.09L98.7455 48.032ZM97.3375 43.808L94.5535 35.584L91.8015 43.808H97.3375Z" fill="black"/>
</svg>
