<svg width="25" height="25" viewBox="0 0 25 25" fill="none" xmlns="http://www.w3.org/2000/svg">
<path d="M12.0001 17.6356L12.0002 17.6356L18.1634 11.4724C17.3246 11.1233 16.3311 10.5498 15.3915 9.6102C14.4517 8.67045 13.8782 7.67679 13.5291 6.83789L7.36577 13.0012L7.36576 13.0012C6.88481 13.4822 6.64431 13.7227 6.4375 13.9878C6.19353 14.3006 5.98436 14.6391 5.8137 14.9972C5.66903 15.3007 5.56148 15.6234 5.34638 16.2687L4.21212 19.6714C4.10627 19.989 4.18892 20.3391 4.42561 20.5758C4.6623 20.8125 5.0124 20.8951 5.32995 20.7893L8.73273 19.655C9.37801 19.4399 9.70066 19.3324 10.0042 19.1877C10.3623 19.017 10.7008 18.8079 11.0136 18.5639C11.2787 18.3571 11.5192 18.1166 12.0001 17.6356Z" fill="url(#paint0_linear_1818_22447)"/>
<path d="M19.8736 9.76218C21.1534 8.48243 21.1534 6.40754 19.8736 5.12778C18.5938 3.84803 16.519 3.84803 15.2392 5.12778L14.5 5.86698C14.5101 5.89755 14.5206 5.92854 14.5315 5.95993C14.8025 6.74088 15.3137 7.76464 16.2753 8.72632C17.237 9.688 18.2608 10.1992 19.0417 10.4701C19.073 10.481 19.1038 10.4914 19.1343 10.5015L19.8736 9.76218Z" fill="url(#paint1_linear_1818_22447)"/>
<defs>
<linearGradient id="paint0_linear_1818_22447" x1="12.5001" y1="4.16797" x2="12.5001" y2="20.8346" gradientUnits="userSpaceOnUse">
<stop stop-color="#4881FF"/>
<stop offset="1" stop-color="#2955B8"/>
</linearGradient>
<linearGradient id="paint1_linear_1818_22447" x1="12.5001" y1="4.16797" x2="12.5001" y2="20.8346" gradientUnits="userSpaceOnUse">
<stop stop-color="#4881FF"/>
<stop offset="1" stop-color="#2955B8"/>
</linearGradient>
</defs>
</svg>
