<svg width="30" height="30" viewBox="0 0 30 30" fill="none" xmlns="http://www.w3.org/2000/svg">
<path d="M15 8.854V23.9999" stroke="#1C274D" stroke-width="1.5"/>
<path d="M8 12L12 13" stroke="#1C274D" stroke-width="1.5" stroke-linecap="round"/>
<path d="M8 16L12 17" stroke="#1C274D" stroke-width="1.5" stroke-linecap="round"/>
<path d="M22 16L18 17" stroke="#1C274D" stroke-width="1.5" stroke-linecap="round"/>
<path d="M22 8.5V12.5103C22 12.7859 22 12.9237 21.9051 12.9794C21.8103 13.035 21.6806 12.9734 21.4211 12.8502L20.1789 12.2601C20.0911 12.2184 20.0472 12.1976 20 12.1976C19.9528 12.1976 19.9089 12.2184 19.8211 12.2601L18.5789 12.8502C18.3194 12.9734 18.1897 13.035 18.0949 12.9794C18 12.9237 18 12.7859 18 12.5103V9.95002" stroke="#1C274D" stroke-width="1.5" stroke-linecap="round"/>
<path d="M23.082 6.01775L23.1081 6.76729L23.082 6.01775ZM19.5 6.48744L19.2849 5.76895V5.76895L19.5 6.48744ZM16.6738 7.80275L16.2982 7.15363L16.2982 7.15363L16.6738 7.80275ZM6.9824 6.07489L6.93639 6.82348L6.9824 6.07489ZM10 6.48744L10.1914 5.76227V5.76227L10 6.48744ZM13.2823 7.87546L12.9317 8.53847L13.2823 7.87546ZM16.6276 23.0692L16.9804 23.7311L16.6276 23.0692ZM20 21.6334L19.8086 20.9082H19.8086L20 21.6334ZM22.9851 21.2228L23.032 21.9714L22.9851 21.2228ZM13.3724 23.0692L13.0196 23.7311H13.0196L13.3724 23.0692ZM10 21.6334L10.1914 20.9082H10.1914L10 21.6334ZM7.01486 21.2228L6.96804 21.9714H6.96804L7.01486 21.2228ZM25.75 13.5384C25.75 13.1242 25.4142 12.7884 25 12.7884C24.5858 12.7884 24.25 13.1242 24.25 13.5384H25.75ZM24.25 10C24.25 10.4142 24.5858 10.75 25 10.75C25.4142 10.75 25.75 10.4142 25.75 10H24.25ZM4.25 13.5707C4.25 13.9849 4.58579 14.3207 5 14.3207C5.41421 14.3207 5.75 13.9849 5.75 13.5707H4.25ZM5.75 17C5.75 16.5858 5.41421 16.25 5 16.25C4.58579 16.25 4.25 16.5858 4.25 17H5.75ZM23.0559 5.2682C21.9175 5.30785 20.4296 5.42627 19.2849 5.76895L19.7151 7.20594C20.6643 6.92179 21.9892 6.80627 23.1081 6.76729L23.0559 5.2682ZM19.2849 5.76895C18.2899 6.06684 17.1706 6.64868 16.2982 7.15363L17.0495 8.45188C17.9 7.95969 18.8949 7.45149 19.7151 7.20594L19.2849 5.76895ZM6.93639 6.82348C7.90238 6.88285 8.99643 6.99829 9.80864 7.21262L10.1914 5.76227C9.23055 5.50873 8.01517 5.38695 7.02841 5.3263L6.93639 6.82348ZM9.80864 7.21262C10.7708 7.46651 11.9549 8.02196 12.9317 8.53847L13.6328 7.21244C12.6374 6.68606 11.3277 6.06211 10.1914 5.76227L9.80864 7.21262ZM16.9804 23.7311C17.9714 23.2028 19.1988 22.6205 20.1914 22.3585L19.8086 20.9082C18.6383 21.217 17.2827 21.8701 16.2748 22.4074L16.9804 23.7311ZM20.1914 22.3585C20.9943 22.1466 22.0732 22.0313 23.032 21.9714L22.9383 20.4743C21.9582 20.5356 20.7591 20.6574 19.8086 20.9082L20.1914 22.3585ZM13.7252 22.4074C12.7173 21.8701 11.3617 21.217 10.1914 20.9082L9.80864 22.3585C10.8012 22.6205 12.0286 23.2028 13.0196 23.7311L13.7252 22.4074ZM10.1914 20.9082C9.24092 20.6574 8.04176 20.5356 7.06168 20.4743L6.96804 21.9714C7.9268 22.0313 9.00566 22.1466 9.80864 22.3585L10.1914 20.9082ZM24.25 19.1436C24.25 19.8293 23.6817 20.4278 22.9383 20.4743L23.032 21.9714C24.5062 21.8791 25.75 20.6798 25.75 19.1436H24.25ZM25.75 7.93319C25.75 6.46989 24.5847 5.21495 23.0559 5.2682L23.1081 6.76729C23.7229 6.74588 24.25 7.25161 24.25 7.93319H25.75ZM4.25 19.1436C4.25 20.6798 5.49378 21.8791 6.96804 21.9714L7.06168 20.4743C6.31831 20.4278 5.75 19.8293 5.75 19.1436H4.25ZM16.2748 22.4074C15.4825 22.8297 14.5175 22.8297 13.7252 22.4074L13.0196 23.7311C14.2529 24.3885 15.7471 24.3885 16.9804 23.7311L16.2748 22.4074ZM16.2982 7.15363C15.4801 7.62709 14.4617 7.6507 13.6328 7.21244L12.9317 8.53847C14.2239 9.22177 15.791 9.18025 17.0495 8.45188L16.2982 7.15363ZM5.75 7.9978C5.75 7.30062 6.30243 6.78451 6.93639 6.82348L7.02841 5.3263C5.47017 5.23053 4.25 6.49864 4.25 7.9978H5.75ZM25.75 19.1436V13.5384H24.25V19.1436H25.75ZM25.75 10V7.93319H24.25V10H25.75ZM5.75 13.5707V7.9978H4.25V13.5707H5.75ZM5.75 19.1436V17H4.25V19.1436H5.75Z" fill="#1C274D"/>
</svg>
