<svg width="30" height="30" viewBox="0 0 30 30" fill="none" xmlns="http://www.w3.org/2000/svg">
<path d="M15 24.25C14.5858 24.25 14.25 24.5858 14.25 25C14.25 25.4142 14.5858 25.75 15 25.75V24.25ZM7.31802 23.8284L7.81629 23.2679L7.31802 23.8284ZM22.682 23.8284L22.1837 23.2679L22.682 23.8284ZM10.9548 25.6837C11.3682 25.7087 11.7236 25.3938 11.7486 24.9804C11.7736 24.5669 11.4587 24.2115 11.0452 24.1865L10.9548 25.6837ZM5.25 15C5.25 16.8741 5.24918 18.8307 5.41875 20.4664C5.50368 21.2856 5.63401 22.0548 5.84074 22.7105C6.04411 23.3557 6.3444 23.9665 6.81975 24.389L7.81629 23.2679C7.63262 23.1046 7.43867 22.7904 7.27134 22.2596C7.10738 21.7394 6.99058 21.0818 6.91075 20.3118C6.75082 18.769 6.75 16.8971 6.75 15H5.25ZM15 25.75C17.1024 25.75 18.7464 25.7513 20.0267 25.5983C21.3204 25.4436 22.3568 25.1209 23.1803 24.389L22.1837 23.2679C21.6891 23.7075 21.0058 23.9706 19.8487 24.1089C18.6782 24.2487 17.1402 24.25 15 24.25V25.75ZM11.0452 24.1865C9.33099 24.0829 8.4315 23.8147 7.81629 23.2679L6.81975 24.389C7.83576 25.2921 9.18271 25.5767 10.9548 25.6837L11.0452 24.1865ZM23.2499 15.3873C23.2492 17.2185 23.2371 19.0032 23.0724 20.4673C22.9902 21.1982 22.8728 21.8201 22.7119 22.3117C22.548 22.8126 22.3605 23.1108 22.1837 23.2679L23.1803 24.389C23.6399 23.9804 23.9352 23.3963 24.1375 22.7783C24.3428 22.1509 24.4751 21.4171 24.563 20.635C24.7387 19.0731 24.7492 17.2032 24.7499 15.3879L23.2499 15.3873Z" fill="#1C274D"/>
<path d="M17.6603 17.2019L20.664 16.3008M12.3397 17.2019L6.3324 15.3997C5.7369 15.2211 5.43915 15.1317 5.25021 14.9176C5.21341 14.8759 5.18015 14.8312 5.15078 14.784C5 14.5415 5 14.2307 5 13.6089C5 11.1588 5 9.9337 5.67298 9.10659C5.80233 8.94763 5.94763 8.80233 6.10659 8.67298C6.9337 8 8.15877 8 10.6089 8H19.3911C21.8412 8 23.0663 8 23.8934 8.67298C24.0524 8.80233 24.1977 8.94763 24.327 9.10659C25 9.9337 25 11.1588 25 13.6089C25 14.2307 25 14.5415 24.8492 14.784C24.8199 14.8312 24.7866 14.8759 24.7498 14.9176C24.5999 15.0875 24.3814 15.1789 24 15.2986" stroke="#1C274D" stroke-width="1.5" stroke-linecap="round"/>
<path d="M9.5 8C10.3234 7.97913 11.1593 7.45491 11.4394 6.68032C11.4481 6.65649 11.4569 6.62999 11.4746 6.57697L11.5002 6.5C11.5424 6.37344 11.5635 6.31014 11.5861 6.254C11.8743 5.53712 12.5496 5.05037 13.3208 5.00366C13.3812 5 13.4479 5 13.5814 5H16.4191C16.5525 5 16.6192 5 16.6796 5.00366C17.4508 5.05037 18.1262 5.53712 18.4144 6.254C18.4369 6.31014 18.458 6.37343 18.5002 6.5L18.5259 6.57697C18.5435 6.62968 18.5524 6.65656 18.561 6.68032C18.8412 7.45491 19.6766 7.97913 20.5 8" stroke="#1C274D" stroke-width="1.5"/>
<path d="M17 15.5H13C12.7239 15.5 12.5 15.7239 12.5 16V18.1615C12.5 18.3659 12.6245 18.5498 12.8143 18.6257L13.5144 18.9058C14.4681 19.2872 15.5319 19.2872 16.4856 18.9058L17.1857 18.6257C17.3755 18.5498 17.5 18.3659 17.5 18.1615V16C17.5 15.7239 17.2761 15.5 17 15.5Z" stroke="#1C274D" stroke-width="1.5" stroke-linecap="round"/>
</svg>
